<?xml version="1.0" encoding="utf-8"?>
<!-- Generator: Adobe Illustrator 25.4.1, SVG Export Plug-In . SVG Version: 6.00 Build 0)  -->
<svg version="1.1" id="Capa_1" xmlns="http://www.w3.org/2000/svg" xmlns:xlink="http://www.w3.org/1999/xlink" x="0px" y="0px"
	 viewBox="0 0 850.4 850.4" style="enable-background:new 0 0 850.4 850.4;" xml:space="preserve">
<style type="text/css">
	.st0{display:none;fill:#FFFFFF;}
	.st1{display:none;}
	.st2{display:inline;}
	.st3{fill:#FFFFFF;}
	.st4{fill:#041045;}
	.st5{display:none;fill:#262626;}
	.st6{fill:#52EC8F;stroke:#041045;stroke-width:9.6484;stroke-miterlimit:10;}
	.st7{fill:#A1F199;}
	.st8{fill:#23BD95;}
	.st9{fill:#DB9600;}
	
		.st10{fill:url(#SVGID_00000068646049399593789320000000326614521747241868_);stroke:#041045;stroke-width:9.6484;stroke-linecap:round;stroke-miterlimit:10;}
	.st11{fill:#FFC44D;stroke:#041045;stroke-width:12.2588;stroke-miterlimit:10;}
	.st12{display:none;fill:#EF74B9;stroke:#041045;stroke-width:9.6484;stroke-miterlimit:10;}
	.st13{fill:#D30780;stroke:#041045;stroke-width:17.8779;stroke-miterlimit:10;}
	.st14{fill:#E76FB3;}
	
		.st15{fill:url(#SVGID_00000085243366900555919290000009852404839371786125_);stroke:#041045;stroke-width:9.6484;stroke-linecap:round;stroke-miterlimit:10;}
	.st16{fill:#52EC8F;stroke:#041045;stroke-width:6.392;stroke-miterlimit:10;}
	
		.st17{fill:url(#SVGID_00000012434278169892997200000015940290174894457517_);stroke:#041045;stroke-width:6.392;stroke-linecap:round;stroke-miterlimit:10;}
	.st18{fill:#FFC44D;stroke:#041045;stroke-width:8.1213;stroke-miterlimit:10;}
	.st19{display:none;fill:#EF74B9;stroke:#041045;stroke-width:6.392;stroke-miterlimit:10;}
	.st20{fill:#D30780;stroke:#041045;stroke-width:11.844;stroke-miterlimit:10;}
	.st21{display:none;fill:#D20581;}
</style>
<rect class="st0" width="850.4" height="850.4"/>
<path class="st3" d="M190,275.1c0,0,155.4-39.9,200,9.4c0,0,28,110.7-29.2,143.1c0,0-86.9,31.1-136.7-14.3
	C224.2,413.3,185.9,378.4,190,275.1z"/>
<path class="st3" d="M454.6,287.6c0,0,39.7-44.8,206.5-12.5c0,0,12.2,100.6-40.8,150.7c0,0-68.2,47.4-153.8-15.3
	C466.5,410.5,435.1,329.1,454.6,287.6z"/>
<g>
	<g>
		<path class="st4" d="M399.5,433.8c0,0,19.2-18.3,21.8-35.7c0,0,4.4-7,8.7,0c4.4,7,13.1,30.5,22.6,35.7c0,0-22.4,28.7-26.4,35.7
			C426.2,469.5,405.6,439.9,399.5,433.8z"/>
		<path class="st5" d="M216.6,225.6c0,0-11.3-53.1-8.7-101.9c0,0,2.5-3.5,21.3,6.1c0,0,22.2,16.5,44.9,23.5c0,0-15.7-16-14.8-30.2
			c0,0,19.2,31.1,53.1,45.9c34,14.8,34,7,61,26.1c0,0-9.5-19.7-61-40.9c0,0,94.1-89.7,228.2,0.9c0,0-46.2,20-63.6,40.9
			c0,0,35.7-20,55.7-25.3c0,0,52.3-16,60.1-47.6c0,0-4.4,26-7.8,31.6c0,0,28.1-13.6,38.9-23.2c0,0,14.2-10.8,24.7-8.5
			c0,0-3.3,80-11.3,102.5c0,0-181.2-27.4-212.1,48C425.2,273.7,420.4,206.5,216.6,225.6z"/>
		<path class="st6" d="M575.7,461.7c0,0,53.4,79,48.2,187c0,0,9.3,58.6,35.2,77.8C659,726.5,385.3,779.9,575.7,461.7z"/>
		<path class="st7" d="M648.3,723.1c0,0-102.7,18-130-49C518.3,674.1,622.5,723.1,648.3,723.1z"/>
		<path class="st8" d="M648.3,723.1c0,0-32.1-39.3-29-94.9C619.4,628.1,587.9,702.5,648.3,723.1z"/>
		<path class="st4" d="M319.2,298.3c5.4,4.4,9.1,11,9.8,18.6c1.3,15-9.7,28.3-24.8,29.6c-12,1.1-22.9-5.8-27.5-16.3
			c-1.8,5.6-2.5,11.7-2,18c2.3,25.2,24.5,43.9,49.8,41.6s43.9-24.5,41.6-49.8C364,315.8,343.2,297.6,319.2,298.3z M344.7,362.8
			c-5.4,0.5-10.3-2.6-12.3-7.3c-0.5-1.2-0.8-2.5-1-3.8c-0.6-6.8,4.4-12.7,11.1-13.3c3.4-0.3,6.5,0.8,8.9,2.8c2.4,2,4.1,5,4.4,8.4
			C356.4,356.2,351.5,362.2,344.7,362.8z"/>
		<path class="st4" d="M525.3,298.4c5.6,4.2,9.6,10.6,10.5,18.2c2,14.9-8.6,28.6-23.5,30.6c-12,1.6-23.1-4.9-28.1-15.2
			c-1.6,5.7-2.1,11.8-1.2,18.1c3.3,25.1,26.3,42.8,51.4,39.5c25.1-3.3,42.8-26.3,39.5-51.4C570.8,314.1,549.3,296.7,525.3,298.4z
			 M553.4,361.8c-5.4,0.7-10.4-2.2-12.6-6.8c-0.6-1.2-0.9-2.4-1.1-3.8c-0.9-6.7,3.8-12.9,10.5-13.8c3.4-0.4,6.5,0.5,9,2.4
			c2.5,1.9,4.3,4.8,4.7,8.2C564.9,354.7,560.2,360.9,553.4,361.8z"/>
		<path class="st9" d="M317.3,296.4c5.4,4.4,9.1,11,9.8,18.6c1.3,15-9.7,28.3-24.7,29.6c-12,1.1-22.9-5.8-27.5-16.3
			c-1.8,5.6-2.5,11.7-2,18c2.3,25.2,24.5,43.9,49.8,41.6s43.9-24.5,41.6-49.8C362.1,313.9,341.3,295.7,317.3,296.4z M342.8,360.9
			c-5.4,0.5-10.3-2.6-12.3-7.3c-0.5-1.2-0.8-2.5-1-3.8c-0.6-6.8,4.4-12.7,11.1-13.3c3.4-0.3,6.5,0.8,8.9,2.8c2.4,2,4.1,5,4.4,8.4
			C354.5,354.3,349.6,360.3,342.8,360.9z"/>
		<path class="st9" d="M523.4,296.5c5.6,4.2,9.6,10.6,10.5,18.2c2,14.9-8.6,28.6-23.5,30.6c-12,1.6-23.1-4.9-28.1-15.2
			c-1.6,5.7-2.1,11.8-1.2,18.1c3.3,25.1,26.3,42.8,51.4,39.5s42.8-26.3,39.5-51.4C568.8,312.1,547.4,294.8,523.4,296.5z
			 M551.5,359.9c-5.4,0.7-10.4-2.2-12.6-6.8c-0.6-1.2-0.9-2.4-1.1-3.8c-0.9-6.7,3.8-12.9,10.5-13.8c3.4-0.4,6.5,0.5,9,2.4
			c2.5,1.9,4.3,4.8,4.7,8.2C563,352.8,558.3,359,551.5,359.9z"/>
		
			<linearGradient id="SVGID_00000046326601447864269420000010434916563811570591_" gradientUnits="userSpaceOnUse" x1="317.7754" y1="388.2984" x2="677.6786" y2="654.0747">
			<stop  offset="0" style="stop-color:#780BB4"/>
			<stop  offset="0.25" style="stop-color:#4719A8"/>
			<stop  offset="0.5" style="stop-color:#232990"/>
			<stop  offset="0.75" style="stop-color:#314BDB"/>
			<stop  offset="1" style="stop-color:#1DA0E1"/>
		</linearGradient>
		
			<path style="fill:url(#SVGID_00000046326601447864269420000010434916563811570591_);stroke:#041045;stroke-width:9.6484;stroke-linecap:round;stroke-miterlimit:10;" d="
			M643,358.5c0,0,15.8,89.3-78.8,92.8s-120.4,3.8-333.3-12.4c0,0,5.8,75.9,88.1,85.7c0,0,54.7,5.4,167.7-19.9
			c0,0-144.5,65.2-230.6,29.9c0,0,19.4,77.3,94.6,66.4c0,0,84.8-7.7,148.5-58.9c0,0-52.9,76.5-194.6,85c0,0,68.3,134,216-47.7
			c0,0-45.9,108.9-147.9,119.4c0,0,57,43.8,141.4,57.6C514.1,756.3,721.5,642.7,643,358.5z"/>
		<ellipse class="st11" cx="424.4" cy="202.9" rx="91.7" ry="76.3"/>
		<ellipse class="st9" cx="424.4" cy="204.6" rx="65.6" ry="47.5"/>
		<path class="st12" d="M216.6,225.6c0,0,187.1-20.2,208.6,48c0,0,20.6-72.5,212.1-48c0,0,6.8-11.6,11.3-102.5c0,0-9.1-3.2-24.7,8.5
			c0,0-26.6,18.4-38.9,23.2c0,0,7.7-17.6,7.8-31.6c0,0-18.4,38.5-60.1,47.6c0,0-23.3,6.5-55.7,25.3c0,0-43.1,15.8-51.8,48.6
			c0,0-13-29-51.8-49.5c0,0-15.9-13.1-40-18.2c0,0-43-15.9-70.9-58.8c0,0,0.2,18.9,11.7,35.2c0,0-20.2-6.8-44.9-23.5
			c0,0-14.9-8.2-21.3-6.1C207.9,123.7,203.5,158.6,216.6,225.6z"/>
		<g>
			<path class="st13" d="M180.4,94.1c0,0,95.6,52.4,162.8,75.6s82.5,74.1,82.5,74.1s14.9-47.1,81.1-72.1
				c72.3-27.2,135.1-60.8,164.4-77.6c0,0,15.8,43.8-11.9,77.6c-34.1,41.6-105.2,54.6-152.5,72.1c-40.2,14.8-67.8,53-77.5,76.8
				c-1.8,4.3-7.5,4.4-9.3,0.1c-9-20.7-30.7-57.4-76.7-76.9c-79.1-33.6-110.1-26-150.9-72.1C192.2,171.7,166.1,147.5,180.4,94.1z"/>
			<path class="st14" d="M255.4,188.8c0,0-70.8-22.7-67.2-80.6c0,0,108.3,55.3,154.1,65.5c45,10,82.7,55,83.3,70
				c0,0,11.9-49.6,79.5-69.5c70.1-20.7,132.7-54.4,157.2-66c0,0-2.9,63.3-56.2,80.6c-48.2,15.7-181.1,42.6-180.6,98.6
				C425.1,288.8,432.8,222.3,255.4,188.8"/>
		</g>
		<path class="st4" d="M677.3,256.9c-58.4-11.3-176-5.2-176-5.2c-44.4,9.6-42.7,20-58.3,40.9c-15.7,20.9-34,0-34,0
			c-11.3-35.7-60.1-41.1-60.1-41.1c-81.9-10.3-176,4.5-176,4.5s-20.9,0-15.7,23.5c5.2,23.5,19.2,15.7,19.2,15.7
			c7,80.1,26.1,108.9,26.1,108.9c7.8,9.6,35.3,63.1,129.8,47.1c92.8-15.7,81-117.7,81-117.7c13.1-1.8,24.6,0.9,24.6,0.9
			c0.3,24.7-2.8,81.9,51.2,105.4c54,23.5,106.3,10.7,142.8-14.8c37.5-26.1,43.6-131.5,43.6-131.5c20,1.7,17.4-10.5,18.3-26.1
			C694.7,251.7,677.3,256.9,677.3,256.9z M355.1,414.5c-38.3,20.9-94.9,8.7-113.2-7.8c-18.3-16.6-34-38.3-38.3-118.5
			c0,0,100.2-20,149.8-8.7c0,0,30.5,3.5,33.1,31.4C389,338.7,393.4,393.6,355.1,414.5z M596.3,415.4c0,0-78.7,33.1-118.5-19.2
			c0,0-15.7-14.8-13.1-81c0,0,0-31.2,37.5-36.5c0,0,74-7.9,146.3,10.3C648.6,289.1,644.2,404.1,596.3,415.4z"/>
	</g>
</g>
</svg>
